<?xml version="1.0" encoding="utf-8"?>
<!-- Generator: Adobe Illustrator 24.0.2, SVG Export Plug-In . SVG Version: 6.00 Build 0)  -->
<svg version="1.1" xmlns="http://www.w3.org/2000/svg" xmlns:xlink="http://www.w3.org/1999/xlink" x="0px" y="0px"
	 viewBox="0 0 512 512" style="enable-background:new 0 0 512 512;" xml:space="preserve">
<style type="text/css">
	.st0{fill:#C5E9F9;}
	.st1{fill:#5E889E;}
</style>
<g id="Layer_1">
	<circle class="st0" cx="256.3281" cy="255.9678" r="248.873"/>
</g>
<g id="Layer_2">
	<g>
		<path class="st1" d="M353.5177,285.7459c-0.928-4.088-3.1924-7.9435-6.7574-11.0624c-3.5941-3.0984-7.9725-4.9681-12.5151-5.6517
			l-73.0431-14.1352l21.1302,14.0224l-33.3616,104.5828l-18.7871-77.6864l-18.7923,77.6864l-33.353-104.5811l21.1268-14.0224
			l-73.0482,14.1352c-4.5391,0.6819-8.9227,2.5533-12.5117,5.6517c-3.5684,3.1172-5.8328,6.9745-6.7608,11.0624l-21.6566,95.1217
			l40.847,14.1814c13.573,14.0942,51.5334,24.4662,97.0666,25.4523h7.0804h7.0753c45.5383-0.9844,83.4987-11.3581,97.0649-25.4523
			l40.8539-14.1814L353.5177,285.7459z"/>
		<polygon class="st1" points="230.1819,265.5112 213.3413,271.544 230.1819,295.8188 247.0191,271.544 		"/>
		<path class="st1" d="M292.6923,171.8404c0-43.173-17.7634-77.0079-62.5104-77.0079c-44.7521,0-62.5138,33.835-62.5138,77.0079
			c-4.6793,2.4439-7.7504,8.1725-3.1582,20.4517c2.3208,6.1678,6.4088,11.3342,9.8729,14.0378
			c12.7509,31.75,37.8323,56.2623,55.7991,56.2623c17.9583,0,43.0431-24.514,55.7923-56.2623
			c3.471-2.7037,7.5538-7.8683,9.8712-14.0378C300.4478,180.0129,297.375,174.2826,292.6923,171.8404z"/>
		<g>
			<path class="st1" d="M337.0086,154.8529h-33.1958c0.2136,1.8867,0.3948,3.7974,0.5384,5.7508h32.6557v-5.7508H337.0086z"/>
			<path class="st1" d="M404.1334,135.0284H299.8616c0.5605,1.8714,1.0493,3.8008,1.5142,5.7542h102.7576V135.0284z"/>
			<path class="st1" d="M423.0606,94.8496c-2.6216-2.6182-6.0584-3.9324-9.4952-3.9324H265.8147
				c6.554,3.4436,12.3647,7.9401,17.3618,13.426h130.3888v93.9784h-35.9319l-27.1989,27.2023v-27.2023h-44.0224
				c-2.114,4.9578-5.1339,9.6473-8.6151,13.4294h39.2098v36.9249c0,1.5005,0.8904,2.9292,2.3653,3.5428
				c1.4783,0.6135,3.1172,0.2358,4.182-0.8323l39.6404-39.637h30.3708c3.4368,0,6.8719-1.3142,9.4952-3.9359
				c2.6216-2.6216,3.929-6.0567,3.929-9.4935v-93.9767C426.9897,100.9063,425.6823,97.4746,423.0606,94.8496z"/>
			<path class="st1" d="M404.1334,115.2124H291.2311c1.1143,1.8474,2.1687,3.7615,3.1514,5.7542h109.7509V115.2124z"/>
		</g>
	</g>
</g>
</svg>
